<svg id="Layer_1" data-name="Layer 1" xmlns="http://www.w3.org/2000/svg" viewBox="0 0 512 512"><defs><style>.cls-1{fill:#f9c882;}.cls-2{fill:#141f38;}.cls-3{fill:#d18e61;}</style></defs><title>paper-plane-filled</title><polygon class="cls-1" points="6.57 72.2 164.1 413.54 505.44 242.87 6.57 72.2"/><path class="cls-2" d="M164.1,420.1a6.56,6.56,0,0,1-6-3.81L.6,75a6.56,6.56,0,0,1,8.09-9L507.56,236.66a6.57,6.57,0,0,1,.81,12.08L167,419.41A6.59,6.59,0,0,1,164.1,420.1ZM19,83.38,167.23,404.64,488.48,244Z"/><polygon class="cls-3" points="98.46 150.97 400.41 295.38 347.9 439.79 321.64 334.77 98.46 150.97"/><path class="cls-2" d="M347.9,446.36h-.34a6.57,6.57,0,0,1-6-5L315.8,338.46,94.29,156a6.57,6.57,0,0,1,7-11L403.24,289.46a6.57,6.57,0,0,1,3.34,8.17L354.07,442A6.57,6.57,0,0,1,347.9,446.36ZM144.16,180.11,325.81,329.7a6.59,6.59,0,0,1,2.2,3.47l21.05,84.21,43.14-118.65Z"/><polygon class="cls-3" points="321.64 334.77 252.42 369.38 347.9 439.79 321.64 334.77 321.64 334.77"/><path class="cls-2" d="M347.9,446.36a6.56,6.56,0,0,1-3.9-1.28l-95.48-70.42a6.57,6.57,0,0,1,1-11.15l69.22-34.61a6.56,6.56,0,0,1,9.3,4.28l26.26,105a6.56,6.56,0,0,1-6.37,8.16Zm-83-75.9,72.16,53.22L317.26,344.3Z"/></svg>